<?xml version="1.0" standalone="no"?>
<!DOCTYPE svg PUBLIC "-//W3C//DTD SVG 20010904//EN"
 "http://www.w3.org/TR/2001/REC-SVG-20010904/DTD/svg10.dtd">
<svg version="1.0" xmlns="http://www.w3.org/2000/svg"
 width="1040.000000pt" height="240.000000pt" viewBox="0 0 1040.000000 240.000000"
 preserveAspectRatio="xMidYMid meet">

<g transform="translate(0.000000,240.000000) scale(0.100000,-0.100000)"
fill="#000000" stroke="none">
<path d="M9315 2119 c-44 -25 -45 -30 -45 -318 l0 -276 -26 33 c-66 84 -177
127 -310 120 -70 -4 -94 -10 -157 -41 -161 -80 -249 -230 -263 -452 -15 -224
86 -424 254 -507 159 -79 386 -30 477 103 15 21 32 39 36 39 5 0 9 -25 9 -55
0 -46 4 -60 25 -80 32 -33 78 -33 110 0 l25 24 0 680 0 680 -22 26 c-26 29
-82 41 -113 24z m-232 -595 c64 -22 129 -82 158 -146 22 -49 24 -66 24 -213 0
-146 -2 -165 -24 -212 -26 -59 -91 -124 -148 -149 -45 -19 -154 -22 -198 -5
-87 34 -150 109 -180 215 -24 82 -17 249 14 327 61 157 208 233 354 183z"/>
<path d="M1490 2040 c-244 -29 -437 -205 -512 -465 -33 -116 -33 -344 0 -460
99 -344 401 -518 747 -429 96 25 173 71 256 154 82 82 133 171 166 290 25 93
26 368 0 460 -61 220 -217 385 -413 433 -80 20 -166 26 -244 17z m247 -179
c81 -44 146 -114 188 -204 112 -239 74 -563 -86 -732 -151 -160 -398 -161
-554 -1 -98 101 -148 246 -147 431 1 267 110 461 295 527 40 14 74 18 147 15
85 -2 101 -6 157 -36z"/>
<path d="M4735 2025 c-16 -15 -25 -36 -25 -55 0 -27 206 -857 290 -1170 33
-123 48 -140 122 -140 64 0 104 21 117 62 6 18 60 214 120 435 107 390 161
606 161 644 0 41 18 16 24 -33 12 -93 46 -243 146 -658 112 -462 106 -450 205
-450 97 0 83 -34 280 660 96 338 175 630 175 648 0 45 -38 82 -83 82 -60 0
-76 -23 -113 -166 -112 -427 -190 -737 -219 -864 -18 -80 -35 -138 -38 -130
-2 8 -19 89 -36 180 -18 91 -74 337 -124 548 -106 442 -102 432 -197 432 -99
0 -96 5 -195 -370 -119 -449 -184 -706 -191 -763 -4 -26 -8 -46 -10 -45 -1 2
-19 80 -39 173 -36 165 -194 848 -215 926 -15 53 -45 79 -92 79 -28 0 -46 -7
-63 -25z"/>
<path d="M6709 1736 c-83 -24 -143 -60 -210 -126 -196 -194 -213 -511 -40
-740 57 -76 111 -122 190 -161 185 -91 413 -46 569 112 57 57 75 93 67 130 -8
36 -40 59 -83 59 -27 0 -43 -11 -93 -61 -85 -86 -149 -114 -259 -114 -76 0
-91 3 -139 30 -134 74 -218 244 -200 405 9 81 53 172 109 224 59 55 90 71 163
85 172 31 286 -62 372 -303 22 -60 98 -139 175 -181 57 -31 76 -58 124 -180
26 -64 116 -154 194 -194 208 -105 428 -69 581 95 112 119 167 272 158 434
-17 290 -202 479 -472 483 -101 1 -171 -16 -260 -62 -76 -39 -187 -141 -219
-202 -33 -63 2 -129 69 -129 37 0 45 6 108 84 179 219 510 179 587 -71 51
-167 7 -331 -119 -445 -94 -85 -222 -101 -341 -45 -75 36 -115 80 -151 168
-49 120 -89 168 -184 217 -53 27 -90 68 -105 117 -19 60 -66 152 -106 207 -46
63 -106 111 -180 145 -50 23 -74 28 -159 30 -61 1 -118 -3 -146 -11z"/>
<path d="M2597 1699 c-41 -10 -107 -41 -149 -70 -31 -23 -38 -24 -38 -5 0 20
-48 56 -76 56 -12 0 -35 -11 -50 -24 l-28 -23 3 -464 c2 -456 3 -464 23 -486
31 -33 100 -32 133 2 l25 24 0 344 0 344 30 41 c84 117 242 155 369 90 81 -42
83 -52 78 -351 -7 -376 6 -446 90 -516 77 -64 220 -79 311 -32 50 26 105 79
130 126 l17 35 53 -39 c28 -22 82 -50 119 -63 126 -43 425 -26 485 29 28 25
24 79 -7 99 -23 15 -32 15 -88 3 -34 -8 -111 -14 -172 -14 -93 0 -118 4 -160
23 -92 42 -166 137 -181 230 -5 35 -3 44 19 66 l26 26 309 0 c360 0 342 -5
342 98 0 186 -87 345 -228 414 -164 81 -405 31 -521 -108 -48 -58 -99 -169
-117 -254 -16 -74 -15 -141 2 -316 16 -163 -100 -276 -222 -218 -19 9 -38 22
-42 28 -4 6 -9 166 -12 356 -5 331 -6 347 -27 386 -69 129 -273 204 -446 163z
m1277 -141 c102 -31 193 -200 139 -260 -15 -16 -36 -18 -234 -18 -180 0 -220
3 -233 15 -26 26 -28 53 -7 101 63 142 192 204 335 162z"/>
<path d="M4365 426 c-53 -24 -78 -60 -83 -119 -8 -94 47 -157 135 -157 66 0
93 14 93 50 0 40 -25 40 -39 0 -8 -24 -16 -30 -40 -30 -17 0 -42 10 -57 24
-24 20 -28 33 -32 88 -4 58 -2 67 23 97 23 27 33 32 63 29 28 -2 37 -8 42 -26
3 -13 10 -23 15 -23 13 0 19 51 8 62 -16 16 -97 20 -128 5z"/>
<path d="M4700 420 c0 -5 9 -10 20 -10 19 0 20 -7 20 -114 0 -109 -1 -114 -22
-120 -16 -4 -20 -8 -12 -16 15 -15 116 -9 122 8 2 7 -5 12 -17 12 -18 0 -21 6
-21 50 0 46 2 50 24 50 30 0 42 -15 51 -65 4 -22 12 -46 18 -52 14 -19 77 -17
77 2 0 8 -7 15 -15 15 -8 0 -19 16 -25 40 -6 21 -18 46 -26 55 -15 14 -14 17
10 36 35 28 35 71 0 98 -23 18 -41 21 -115 21 -53 0 -89 -4 -89 -10z m165 -30
c24 -26 13 -68 -22 -81 -41 -15 -53 -5 -53 44 0 24 3 47 7 50 13 14 50 7 68
-13z"/>
<path d="M5251 408 c-4 -13 -23 -68 -42 -122 -23 -67 -40 -100 -51 -104 -10
-2 -18 -11 -18 -18 0 -10 13 -14 45 -14 33 0 45 4 45 15 0 8 -7 15 -15 15 -17
0 -18 4 -9 38 5 19 13 22 54 22 41 0 49 -3 54 -22 9 -34 8 -38 -9 -38 -8 0
-15 -7 -15 -15 0 -11 13 -15 54 -15 58 0 79 12 49 29 -12 6 -33 53 -58 130
-31 96 -43 121 -57 121 -10 0 -22 -10 -27 -22z m27 -87 c17 -56 15 -61 -22
-61 l-34 0 16 50 c9 28 19 50 22 50 4 0 12 -17 18 -39z"/>
<path d="M5590 420 c0 -5 9 -10 20 -10 19 0 20 -7 20 -114 0 -107 -1 -114 -21
-119 -40 -11 -8 -27 52 -27 46 0 59 3 59 15 0 8 -9 15 -21 15 -18 0 -20 5 -17
53 3 46 6 52 26 55 17 3 25 -2 29 -17 10 -40 33 -24 33 24 0 33 -4 45 -15 45
-8 0 -15 -7 -15 -15 0 -10 -10 -15 -30 -15 -29 0 -30 1 -30 50 l0 50 45 0 c39
0 45 -3 45 -20 0 -20 25 -38 36 -27 3 3 3 19 -1 36 l-7 31 -104 0 c-63 0 -104
-4 -104 -10z"/>
<path d="M6000 390 c0 -31 3 -38 15 -34 8 4 15 17 15 30 0 20 5 24 30 24 l30
0 0 -115 c0 -108 -1 -115 -20 -115 -11 0 -20 -7 -20 -15 0 -12 14 -15 65 -15
51 0 65 3 65 15 0 8 -9 15 -20 15 -20 0 -21 5 -18 113 l3 112 28 3 c21 3 27
-1 27 -15 0 -10 5 -25 10 -33 15 -25 33 3 25 39 l-7 31 -114 0 -114 0 0 -40z"/>
<path d="M2375 280 c9 -14 1665 -14 1665 0 0 7 -285 10 -836 10 -554 0 -833
-3 -829 -10z"/>
<path d="M6460 280 c0 -14 1656 -14 1665 0 4 7 -275 10 -829 10 -551 0 -836
-3 -836 -10z"/>
</g>
</svg>
